<svg width="31" height="31" viewBox="0 0 31 31" fill="none" xmlns="http://www.w3.org/2000/svg">
<path d="M10.85 9.29999H18.3182C19.2151 9.29999 20.0753 9.62659 20.7095 10.208C21.3437 10.7893 21.7 11.5778 21.7 12.4C21.7 13.2222 21.3437 14.0107 20.7095 14.592C20.0753 15.1734 19.2151 15.5 18.3182 15.5C19.2151 15.5 20.0753 15.8266 20.7095 16.408C21.3437 16.9893 21.7 17.7778 21.7 18.6C21.7 19.4222 21.3437 20.2107 20.7095 20.792C20.0753 21.3734 19.2151 21.7 18.3182 21.7H10.85" stroke="#1B1B1B" stroke-width="2" stroke-linecap="round" stroke-linejoin="round"/>
<path d="M12.4 9.29999V21.7" stroke="#1B1B1B" stroke-width="2" stroke-linecap="round" stroke-linejoin="round"/>
<path d="M12.4 15.5H18.6" stroke="#1B1B1B" stroke-width="2" stroke-linecap="round" stroke-linejoin="round"/>
<path d="M15.5 6.20001V9.30001" stroke="#1B1B1B" stroke-width="2" stroke-linecap="round" stroke-linejoin="round"/>
<path d="M15.5 21.7V24.8" stroke="#1B1B1B" stroke-width="2" stroke-linecap="round" stroke-linejoin="round"/>
</svg>
