<svg width="59" height="59" viewBox="0 0 59 59" fill="none" xmlns="http://www.w3.org/2000/svg">
<path d="M31.3438 35.695H31.9092C32.7204 35.695 33.4087 34.9575 33.4087 34.0479C33.4087 32.8925 33.1383 32.745 32.3517 32.4746L31.3438 32.1304V35.695Z" fill="#F4C92E"/>
<path d="M29.5 4.91667C15.93 4.91667 4.91669 15.93 4.91669 29.5C4.91669 43.07 15.93 54.0833 29.5 54.0833C43.07 54.0833 54.0834 43.07 54.0834 29.5C54.0834 15.93 43.07 4.91667 29.5 4.91667ZM18.6342 40.3658C19.3471 41.0788 19.3471 42.2588 18.6342 42.9717C18.2654 43.3404 17.7983 43.5125 17.3312 43.5125C16.8642 43.5125 16.3971 43.3404 16.0283 42.9717C12.4392 39.3825 10.4479 34.5888 10.4479 29.5C10.4479 24.4113 12.4392 19.6175 16.0283 16.0283C16.7412 15.3154 17.9212 15.3154 18.6342 16.0283C19.3471 16.7412 19.3471 17.9213 18.6342 18.6342C15.7333 21.535 14.1354 25.3946 14.1354 29.5C14.1354 33.6054 15.7333 37.465 18.6342 40.3658ZM33.5563 28.9592C35.9163 29.795 37.0717 31.4421 37.0717 34.0233C37.0717 36.9733 34.7609 39.3579 31.8846 39.3579H31.3192V39.8004C31.3192 40.8083 30.4833 41.6442 29.4754 41.6442C28.4675 41.6442 27.6317 40.8083 27.6317 39.8004V39.3579H27.5579C24.4358 39.3579 21.8792 36.7275 21.8792 33.5071C21.8792 32.4992 22.715 31.6633 23.7229 31.6633C24.7308 31.6633 25.5667 32.4992 25.5667 33.5071C25.5667 34.7117 26.4517 35.6704 27.5579 35.6704H27.6317V30.8029L25.4192 30.0163C23.0592 29.1804 21.9038 27.5333 21.9038 24.9521C21.9038 22.0021 24.2146 19.6175 27.0908 19.6175H27.6563V19.175C27.6563 18.1671 28.4921 17.3313 29.5 17.3313C30.5079 17.3313 31.3438 18.1671 31.3438 19.175V19.6175H31.4175C34.5396 19.6175 37.0963 22.2479 37.0963 25.4683C37.0963 26.4763 36.2604 27.3121 35.2525 27.3121C34.2446 27.3121 33.4088 26.4763 33.4088 25.4683C33.4088 24.2638 32.5238 23.305 31.4175 23.305H31.3438V28.1725L33.5563 28.9592ZM42.9717 42.9717C42.603 43.3404 42.1359 43.5125 41.6688 43.5125C41.2017 43.5125 40.7346 43.3404 40.3659 42.9717C39.653 42.2588 39.653 41.0788 40.3659 40.3658C43.2667 37.465 44.8646 33.6054 44.8646 29.5C44.8646 25.3946 43.2667 21.535 40.3659 18.6342C39.653 17.9213 39.653 16.7412 40.3659 16.0283C41.0788 15.3154 42.2588 15.3154 42.9717 16.0283C46.5609 19.6175 48.5521 24.4113 48.5521 29.5C48.5521 34.5888 46.5609 39.3825 42.9717 42.9717Z" fill="#F4C92E"/>
<path d="M25.616 24.9767C25.616 26.1321 25.8864 26.2796 26.673 26.55L27.681 26.8942V23.305H27.1155C26.2797 23.305 25.616 24.0671 25.616 24.9767Z" fill="#F4C92E"/>
</svg>
