<svg width="22" height="18" viewBox="0 0 22 18" fill="none" xmlns="http://www.w3.org/2000/svg">
<path d="M5 10.64H2.36V16H0.5V2H2.36H5.6C6.38667 2 7.11333 2.19333 7.78 2.58C8.44667 2.96667 8.97333 3.49333 9.36 4.16C9.76 4.82667 9.96 5.55333 9.96 6.34C9.96 7.26 9.68667 8.09333 9.14 8.84C8.59333 9.58667 7.89333 10.1067 7.04 10.4L11.86 16H9.6L5 10.64ZM2.36 8.96H5.6C6.05333 8.96 6.46667 8.84667 6.84 8.62C7.22667 8.38 7.53333 8.06 7.76 7.66C7.98667 7.24667 8.1 6.80667 8.1 6.34C8.1 5.87333 7.98667 5.44 7.76 5.04C7.53333 4.64 7.22667 4.32667 6.84 4.1C6.46667 3.86 6.05333 3.74 5.6 3.74H2.36V8.96ZM21.8577 12.44C21.8577 13.1733 21.671 13.82 21.2977 14.38C20.9243 14.94 20.4243 15.38 19.7977 15.7C19.171 16.0067 18.4777 16.1867 17.7177 16.24V18H16.4577V16.2C15.2443 16.0667 14.2443 15.6267 13.4577 14.88C12.6843 14.12 12.2977 13.1133 12.2977 11.86H14.1577C14.1577 12.5667 14.3577 13.14 14.7577 13.58C15.171 14.0067 15.7377 14.2733 16.4577 14.38V9.62C15.671 9.32667 15.0043 9.02 14.4577 8.7C13.9243 8.38 13.4777 7.96 13.1177 7.44C12.771 6.90667 12.5977 6.24667 12.5977 5.46C12.5977 4.40667 12.971 3.55333 13.7177 2.9C14.4643 2.24667 15.3777 1.87333 16.4577 1.78V-2.38419e-07H17.7177V1.8C18.8243 1.93333 19.7443 2.36 20.4777 3.08C21.2243 3.8 21.5977 4.74667 21.5977 5.92H19.7577C19.7577 5.28 19.571 4.76667 19.1977 4.38C18.8377 3.98 18.3443 3.72 17.7177 3.6V8.26C18.571 8.58 19.2777 8.9 19.8377 9.22C20.411 9.52667 20.891 9.94667 21.2777 10.48C21.6643 11 21.8577 11.6533 21.8577 12.44ZM14.4377 5.46C14.4377 5.99333 14.611 6.44 14.9577 6.8C15.3043 7.14667 15.8043 7.46667 16.4577 7.76V3.58C15.8577 3.66 15.371 3.86667 14.9977 4.2C14.6243 4.52 14.4377 4.94 14.4377 5.46ZM17.7177 14.42C18.411 14.3533 18.9643 14.1467 19.3777 13.8C19.8043 13.4533 20.0177 13 20.0177 12.44C20.0177 11.8933 19.8177 11.44 19.4177 11.08C19.0177 10.72 18.451 10.3933 17.7177 10.1V14.42Z" fill="#F4C92E"/>
</svg>
